<?xml version="1.0" encoding="UTF-8" standalone="no"?>
<!-- Created with Inkscape (http://www.inkscape.org/) -->

<svg
   xmlns:dc="http://purl.org/dc/elements/1.1/"
   xmlns:cc="http://creativecommons.org/ns#"
   xmlns:rdf="http://www.w3.org/1999/02/22-rdf-syntax-ns#"
   xmlns:svg="http://www.w3.org/2000/svg"
   xmlns="http://www.w3.org/2000/svg"
   xmlns:sodipodi="http://sodipodi.sourceforge.net/DTD/sodipodi-0.dtd"
   xmlns:inkscape="http://www.inkscape.org/namespaces/inkscape"
   width="210mm"
   height="297mm"
   id="svg2"
   version="1.1"
   inkscape:version="0.48.5 r10040"
   inkscape:export-filename="G:\ds_flow\resources\test.png"
   inkscape:export-xdpi="90"
   inkscape:export-ydpi="90"
   sodipodi:docname="ink.svg">
  <defs
     id="defs4" />
  <sodipodi:namedview
     id="base"
     pagecolor="#ffffff"
     bordercolor="#666666"
     borderopacity="1.0"
     inkscape:pageopacity="0.0"
     inkscape:pageshadow="2"
     inkscape:zoom="0.98994949"
     inkscape:cx="180.70813"
     inkscape:cy="572.21071"
     inkscape:document-units="px"
     inkscape:current-layer="layer1"
     showgrid="false"
     inkscape:window-width="1920"
     inkscape:window-height="1137"
     inkscape:window-x="-8"
     inkscape:window-y="-8"
     inkscape:window-maximized="1" />
  <metadata
     id="metadata7">
    <rdf:RDF>
      <cc:Work
         rdf:about="">
        <dc:format>image/svg+xml</dc:format>
        <dc:type
           rdf:resource="http://purl.org/dc/dcmitype/StillImage" />
        <dc:title></dc:title>
      </cc:Work>
    </rdf:RDF>
  </metadata>
  <g
     inkscape:label="Ebene 1"
     inkscape:groupmode="layer"
     id="layer1">
    <path
       style="fill:#ff0000;fill-rule:evenodd;stroke:#000000;stroke-width:0;stroke-linecap:butt;stroke-linejoin:miter;stroke-miterlimit:4;stroke-opacity:1;stroke-dasharray:none"
       d="M 235.375 239.1875 C 180.14652 239.1875 135.375 283.95902 135.375 339.1875 C 135.375 394.41598 180.14652 439.1875 235.375 439.1875 C 252.88674 439.1875 269.34103 434.6899 283.65625 426.78125 C 276.60538 422.96129 270.0566 418.30558 264.15625 412.96875 C 255.13421 416.4951 245.33363 418.4375 235.0625 418.4375 C 190.87976 418.4375 155.0625 382.62028 155.0625 338.4375 C 155.0625 294.25472 190.87976 258.4375 235.0625 258.4375 C 245.54732 258.4375 255.54301 260.45783 264.71875 264.125 C 270.26888 259.17948 276.38272 254.8404 282.9375 251.21875 C 268.78854 243.55058 252.59891 239.1875 235.375 239.1875 z M 295.78125 390.46875 C 295.66031 390.60969 295.5594 390.76616 295.4375 390.90625 L 296.875 391.6875 C 296.51557 391.2809 296.13273 390.88346 295.78125 390.46875 z "
       id="path2985" />
    <path
       style="fill:#ff0000;fill-rule:evenodd;stroke:#000000;stroke-width:0;stroke-linecap:butt;stroke-linejoin:miter;stroke-miterlimit:4;stroke-opacity:1;stroke-dasharray:none"
       d="m 216.2991,292.3125 0.125,21.9375 42.25,24.0625 -41.9375,24.5625 0.125,22.09375 79.96875,-46.8125 -80.53125,-45.84375 z"
       id="path3797"
       inkscape:connector-curvature="0" />
    <path
       style="fill:#ff0000;fill-rule:evenodd;stroke:#000000;stroke-width:0;stroke-linecap:butt;stroke-linejoin:miter;stroke-miterlimit:4;stroke-opacity:1;stroke-dasharray:none"
       d="M 200 472.375 C 144.77152 472.375 100 517.14652 100 572.375 C 100 627.60348 144.77152 672.375 200 672.375 C 218.21259 672.375 235.2923 667.50697 250 659 C 240.36785 653.42897 231.75555 646.28372 224.5 637.9375 C 216.87059 640.7904 208.62473 642.375 200 642.375 C 161.34007 642.375 130 611.03493 130 572.375 C 130 533.71507 161.34007 502.375 200 502.375 C 208.61044 502.375 216.8499 503.93736 224.46875 506.78125 C 231.72678 498.42867 240.36239 491.32442 250 485.75 C 235.2923 477.24303 218.21259 472.375 200 472.375 z "
       id="path3885" />
    <path
       style="fill:#ff0000;fill-rule:evenodd;stroke:#ff0000;stroke-width:3;stroke-linecap:butt;stroke-linejoin:miter;stroke-miterlimit:4;stroke-opacity:1;stroke-dasharray:none"
       d="m 178.93748,525.70652 0.125,21.9375 42.25,24.0625 -41.9375,24.5625 0.125,22.09375 79.96875,-46.8125 -80.53125,-45.84375 z"
       id="path3797-4"
       inkscape:connector-curvature="0" />
    <path
       inkscape:connector-curvature="0"
       style="fill:#ff0000;fill-rule:evenodd;stroke:#000000;stroke-width:0;stroke-linecap:butt;stroke-linejoin:miter;stroke-miterlimit:4;stroke-opacity:1;stroke-dasharray:none"
       d="m 523.57143,471.6479 c -55.22848,0 -100,44.77152 -100,100 0,55.22848 44.77152,100 100,100 18.21259,0 35.2923,-4.86803 50,-13.375 -9.63215,-5.57103 -18.24445,-12.71628 -25.5,-21.0625 -7.62941,2.8529 -15.87527,4.4375 -24.5,4.4375 -38.65993,0 -70,-31.34007 -70,-70 0,-38.65993 31.34007,-70 70,-70 8.61044,0 16.8499,1.56236 24.46875,4.40625 7.25803,-8.35258 15.89364,-15.45683 25.53125,-21.03125 -14.7077,-8.50697 -31.78741,-13.375 -50,-13.375 z"
       id="path3885-4" />
    <path
       inkscape:connector-curvature="0"
       style="fill:#ff0000;fill-rule:evenodd;stroke:#ff0000;stroke-width:2;stroke-linecap:butt;stroke-linejoin:miter;stroke-miterlimit:4;stroke-opacity:1;stroke-dasharray:none"
       d="m 528.63095,522.60028 c 26.69376,0 48.33332,21.63956 48.33332,48.33333 0,26.69377 -21.63956,48.33333 -48.33332,48.33333 -8.80276,0 -17.05795,-2.35288 -24.16666,-6.46458 4.65553,-2.69266 8.81814,-6.1462 12.32499,-10.1802 3.68755,1.37889 7.67304,2.14478 11.84167,2.14478 18.68563,0 33.83333,-15.1477 33.83333,-33.83333 0,-18.68563 -15.1477,-33.83333 -33.83333,-33.83333 -4.16172,0 -8.14412,0.75514 -11.82657,2.12968 -3.50805,-4.03707 -7.68193,-7.47079 -12.34009,-10.1651 7.10871,-4.1117 15.3639,-6.46458 24.16666,-6.46458 z"
       id="path3885-4-1" />
    <rect
       style="fill:#ff0000;fill-rule:evenodd;stroke:#000000;stroke-width:0;stroke-linecap:butt;stroke-linejoin:miter;stroke-miterlimit:4;stroke-opacity:1;stroke-dasharray:none"
       id="rect3984"
       width="38.978878"
       height="38.978878"
       x="480.05637"
       y="551.71277"
       ry="0.25953695" />
  </g>
</svg>
